HIERARCHY
ROOT Hips
{
	OFFSET 0.000000 0.000000 0.000000
	CHANNELS 6 Xposition Yposition Zposition Zrotation Yrotation Xrotation 
	JOINT LHipJoint
	{
		OFFSET 0.000000 0.000000 0.000000
		CHANNELS 3 Zrotation Yrotation Xrotation
		JOINT LeftUpLeg
		{
			OFFSET 1.363060 -1.794630 0.839290
			CHANNELS 3 Zrotation Yrotation Xrotation
			JOINT LeftLeg
			{
				OFFSET 2.448110 -6.726130 0.000000
				CHANNELS 3 Zrotation Yrotation Xrotation
				JOINT LeftFoot
				{
					OFFSET 2.562200 -7.039590 0.000000
					CHANNELS 3 Zrotation Yrotation Xrotation
					JOINT LeftToeBase
					{
						OFFSET 0.157640 -0.433110 2.322550
						CHANNELS 3 Zrotation Yrotation Xrotation
						End Site
						{
							OFFSET 0.000000 0.000000 0.000000
						}
					}
				}
			}
		}
	}
	JOINT RHipJoint
	{
		OFFSET 0.000000 0.000000 0.000000
		CHANNELS 3 Zrotation Yrotation Xrotation
		JOINT RightUpLeg
		{
			OFFSET -1.305520 -1.794630 0.839290
			CHANNELS 3 Zrotation Yrotation Xrotation
			JOINT RightLeg
			{
				OFFSET -2.542530 -6.985550 0.000000
				CHANNELS 3 Zrotation Yrotation Xrotation
				JOINT RightFoot
				{
					OFFSET -2.568260 -7.056230 0.000000
					CHANNELS 3 Zrotation Yrotation Xrotation
					JOINT RightToeBase
					{
						OFFSET -0.164730 -0.452590 2.363150
						CHANNELS 3 Zrotation Yrotation Xrotation
						End Site
						{
							OFFSET 0.000000 0.000000 0.000000
						}
					}
				}
			}
		}
	}
	JOINT LowerBack
	{
		OFFSET 0.000000 0.000000 0.000000
		CHANNELS 3 Zrotation Yrotation Xrotation
		JOINT Spine
		{
			OFFSET 0.028270 2.035590 -0.193380
			CHANNELS 3 Zrotation Yrotation Xrotation
			JOINT Spine1
			{
				OFFSET 0.056720 2.048850 -0.042750
				CHANNELS 3 Zrotation Yrotation Xrotation
				JOINT Neck
				{
					OFFSET 0.000000 0.000000 0.000000
					CHANNELS 3 Zrotation Yrotation Xrotation
					JOINT Neck1
					{
						OFFSET -0.054170 1.746240 0.172020
						CHANNELS 3 Zrotation Yrotation Xrotation
						JOINT Head
						{
							OFFSET 0.104070 1.761360 -0.123970
							CHANNELS 3 Zrotation Yrotation Xrotation
							End Site
							{
								OFFSET 0.000000 0.000000 0.000000
							}
						}
					}
				}
				JOINT LeftShoulder
				{
					OFFSET 0.000000 0.000000 0.000000
					CHANNELS 3 Zrotation Yrotation Xrotation
					JOINT LeftArm
					{
						OFFSET 3.362410 1.200890 -0.311210
						CHANNELS 3 Zrotation Yrotation Xrotation
						JOINT LeftForeArm
						{
							OFFSET 4.983000 -0.000000 -0.000000
							CHANNELS 3 Zrotation Yrotation Xrotation
							JOINT LeftHand
							{
								OFFSET 3.483560 -0.000000 -0.000000
								CHANNELS 3 Zrotation Yrotation Xrotation
								JOINT LeftFingerBase
								{
									OFFSET 0.000000 0.000000 0.000000
									CHANNELS 3 Zrotation Yrotation Xrotation
									JOINT LeftHandIndex1
									{
										OFFSET 0.715260 -0.000000 -0.000000
										CHANNELS 3 Zrotation Yrotation Xrotation
										End Site
										{
											OFFSET 0.000000 0.000000 0.000000
										}
									}
								}
								JOINT LThumb
								{
									OFFSET 0.000000 0.000000 0.000000
									CHANNELS 3 Zrotation Yrotation Xrotation
									End Site
									{
										OFFSET 0.000000 0.000000 0.000000
									}
								}
							}
						}
					}
				}
				JOINT RightShoulder
				{
					OFFSET 0.000000 0.000000 0.000000
					CHANNELS 3 Zrotation Yrotation Xrotation
					JOINT RightArm
					{
						OFFSET -3.136600 1.374050 -0.404650
						CHANNELS 3 Zrotation Yrotation Xrotation
						JOINT RightForeArm
						{
							OFFSET -5.241900 -0.000000 -0.000000
							CHANNELS 3 Zrotation Yrotation Xrotation
							JOINT RightHand
							{
								OFFSET -3.444170 -0.000000 -0.000000
								CHANNELS 3 Zrotation Yrotation Xrotation
								JOINT RightFingerBase
								{
									OFFSET 0.000000 0.000000 0.000000
									CHANNELS 3 Zrotation Yrotation Xrotation
									JOINT RightHandIndex1
									{
										OFFSET -0.622530 -0.000000 -0.000000
										CHANNELS 3 Zrotation Yrotation Xrotation
										End Site
										{
											OFFSET 0.000000 0.000000 0.000000
										}
									}
								}
								JOINT RThumb
								{
									OFFSET 0.000000 0.000000 0.000000
									CHANNELS 3 Zrotation Yrotation Xrotation
									End Site
									{
										OFFSET 0.000000 0.000000 0.000000
									}
								}
							}
						}
					}
				}
			}
		}
	}
}
MOTION
Frames: 6
Frame Time: 0.008333
0.924336 18.062766 -0.390418 0.773402 -0.216920 0.648764 -0.968506 5.934753 5.329170 -21.129847 -9.600303 -6.842821 0.878881 6.876964 26.976090 -0.713895 4.203531 -6.836963 0.349785 -2.108143 -5.949967 0.684448 -4.160973 2.947782 16.827354 11.166502 -33.736727 -4.018137 -11.738588 37.368573 3.770196 -14.453627 5.148345 -0.160768 2.582581 -7.118710 -2.306770 -1.157781 6.117991 4.359000 -1.575742 6.548784 3.271501 -0.792102 -7.937552 -4.743132 -3.809983 -16.433334 2.600730 -4.192852 15.400672 -0.348511 -1.830341 8.162254 -7.051421 2.572436 -1.188993 -73.325847 -3.890802 29.775720 16.428686 -26.852794 -4.060659 -0.242537 -0.616094 0.117128 27.166710 23.727621 12.075701 -7.125000 0.000000 0.000000 -2.219894 56.994074 -0.652203 10.970542 -2.155879 -2.848831 73.602612 -4.629961 13.035045 -11.361159 23.785328 -2.850174 0.922221 -0.332676 4.819202 -15.177544 22.022250 -6.228017 7.125000 0.000000 0.000000 7.999707 -7.168154 7.009454
0.920410 18.061749 -0.303683 0.815709 -0.189223 0.790668 -1.003122 5.949912 5.377237 -21.107491 -9.507444 -6.528804 0.821272 6.780545 26.724100 -0.459658 3.400036 -7.130573 0.006604 -0.524135 -1.440220 0.778001 -4.145611 2.890815 16.622876 11.349256 -33.605388 -3.602396 -11.270612 35.585733 4.048724 -15.290743 5.232464 -0.149915 2.494118 -6.873411 -2.376461 -1.168438 6.102990 4.393893 -1.592537 6.451298 3.319645 -0.802832 -7.987393 -4.727246 -3.806756 -16.346394 2.611275 -4.203895 15.359392 -0.347386 -1.834642 8.135274 -7.051195 2.565125 -1.185788 -73.181941 -4.049331 29.836851 16.555255 -27.022224 -4.116651 -0.230738 -0.624708 0.032347 26.737519 24.450398 12.169770 -7.125000 0.000000 0.000000 -2.980530 57.671209 -0.944991 10.972896 -2.164192 -2.851467 73.651200 -4.750064 12.832437 -11.279902 23.667573 -2.819271 0.921074 -0.325725 5.045642 -15.202472 21.744472 -6.161754 7.125000 0.000000 0.000000 7.968693 -7.456730 6.936262
0.916187 18.056271 -0.217798 0.870855 -0.154313 0.951070 -1.041873 5.960498 5.414833 -21.097679 -9.436626 -6.279565 0.762129 6.679121 26.432716 -0.436674 3.300680 -7.070419 0.007406 -0.554459 -1.523566 0.872377 -4.129450 2.832987 16.388901 11.552463 -33.489113 -3.191305 -10.792365 33.793246 4.338290 -16.147747 5.254101 -0.139425 2.406529 -6.630651 -2.449160 -1.170588 6.089646 4.415164 -1.598347 6.314947 3.359833 -0.807951 -8.057933 -4.692256 -3.812233 -16.131243 2.610648 -4.245035 15.229242 -0.355010 -1.855736 8.061156 -7.050158 2.551823 -1.182155 -73.006619 -4.186082 30.014189 16.677181 -27.186298 -4.168498 -0.216358 -0.639892 -0.101938 26.229180 25.627660 12.422217 -7.125000 0.000000 0.000000 -4.002183 58.819315 -1.358685 10.977563 -2.178003 -2.858254 73.717362 -4.917062 12.564938 -11.203777 23.558130 -2.791636 0.918583 -0.319737 5.343455 -15.205721 21.462765 -6.085057 7.125000 0.000000 0.000000 7.951955 -7.752283 6.874870
0.911359 18.052506 -0.126219 0.940695 -0.098952 1.034900 -1.079095 5.979322 5.461106 -21.107641 -9.317878 -5.971985 0.711162 6.585749 26.174583 -0.432639 3.301859 -7.147591 0.030738 -1.030457 -2.833468 0.974725 -4.123839 2.784481 16.136090 11.704352 -33.229109 -2.788292 -10.278902 31.979771 4.623023 -16.935213 5.120554 -0.113848 2.163261 -5.957608 -2.538039 -1.192449 6.073900 4.423029 -1.632697 6.256400 3.409190 -0.826552 -8.082116 -4.659215 -3.836279 -16.084312 2.595510 -4.289573 15.236596 -0.367899 -1.875970 8.053918 -7.049759 2.546655 -1.180938 -72.847665 -4.320187 30.170870 16.767057 -27.307215 -4.211716 -0.212526 -0.639348 -0.374610 26.232770 25.553674 12.393782 -7.125000 0.000000 0.000000 -3.963187 58.741625 -1.333489 10.983547 -2.184799 -2.856966 73.757779 -4.974314 12.286630 -11.038022 23.308980 -2.722950 0.916951 -0.323977 5.531131 -15.098307 21.377431 -6.020713 7.125000 0.000000 0.000000 8.015867 -7.850287 6.915594
0.906689 18.050155 -0.033047 1.012958 -0.040081 1.098679 -1.116151 6.000875 5.509435 -21.122148 -9.205815 -5.639228 0.658129 6.488049 25.904877 -0.431612 3.314465 -7.230995 0.053893 -1.497870 -4.119796 1.077934 -4.121020 2.740376 15.875715 11.843726 -32.933201 -2.386557 -9.756918 30.172823 4.892396 -17.648162 4.871329 -0.083176 1.810258 -4.982663 -2.632830 -1.221500 6.046279 4.433017 -1.677376 6.228357 3.464869 -0.849940 -8.081706 -4.624704 -3.857752 -16.082576 2.573103 -4.325036 15.264416 -0.382446 -1.891980 8.060213 -7.049780 2.542612 -1.180633 -72.701354 -4.463999 30.296765 16.854884 -27.425698 -4.255157 -0.211920 -0.636329 -0.652651 26.390802 25.271158 12.354321 -7.125000 0.000000 0.000000 -3.670005 58.475715 -1.212837 10.988822 -2.189597 -2.854660 73.787838 -5.006030 12.033257 -10.868355 23.052858 -2.651867 0.915839 -0.329744 5.690581 -14.990012 21.333545 -5.967678 7.125000 0.000000 0.000000 8.082310 -7.904457 6.965496
0.903493 18.055177 0.065336 1.088197 0.023786 1.100804 -1.153437 6.032605 5.563409 -21.148646 -9.174623 -5.198017 0.585552 6.356860 25.535989 -0.433699 3.315476 -7.240335 0.057447 -1.545963 -4.252439 1.179942 -4.126879 2.715950 15.583832 11.947518 -32.532342 -1.986123 -9.210935 28.423661 5.070341 -17.955434 4.031130 -0.033248 0.903593 -2.486110 -2.751043 -1.279018 5.946893 4.467193 -1.762766 6.325868 3.552293 -0.891992 -7.966635 -4.579471 -3.847993 -16.223372 2.517466 -4.301354 15.306420 -0.402967 -1.882465 8.095638 -7.051896 2.538875 -1.184010 -72.620121 -4.670272 30.248436 16.956301 -27.564506 -4.307066 -0.222696 -0.630850 -0.850385 27.087583 24.721129 12.477047 -7.125000 0.000000 0.000000 -2.669217 58.047518 -0.859790 10.988603 -2.187744 -2.852672 73.774705 -4.969268 11.943623 -10.748006 22.868164 -2.599622 0.917246 -0.336595 5.765183 -14.967127 21.385799 -5.974728 7.125000 0.000000 0.000000 8.098246 -7.848625 6.988539
